<svg width="80" height="80" viewBox="0 0 80 80" fill="none"
    xmlns="http://www.w3.org/2000/svg">
    <circle cx="40" cy="40" r="40" fill="#D9D9D9"/>
    <path d="M17 57.9091V23H32.1364C34.7955 23 37.0284 23.358 38.8352 24.0739C40.6534 24.7898 42.0227 25.8011 42.9432 27.108C43.875 28.4148 44.3409 29.9545 44.3409 31.7273C44.3409 33.0114 44.0568 34.1818 43.4886 35.2386C42.9318 36.2955 42.1477 37.1818 41.1364 37.8977C40.125 38.6023 38.9432 39.0909 37.5909 39.3636V39.7045C39.0909 39.7614 40.4545 40.142 41.6818 40.8466C42.9091 41.5398 43.8864 42.5 44.6136 43.7273C45.3409 44.9432 45.7045 46.375 45.7045 48.0227C45.7045 49.9318 45.2045 51.6307 44.2045 53.1193C43.2159 54.608 41.8068 55.7784 39.9773 56.6307C38.1477 57.483 35.9659 57.9091 33.4318 57.9091H17ZM26.4773 50.3409H30.9091C32.5 50.3409 33.6932 50.0455 34.4886 49.4545C35.2841 48.8523 35.6818 47.9659 35.6818 46.7955C35.6818 45.9773 35.4943 45.2841 35.1193 44.7159C34.7443 44.1477 34.2102 43.7159 33.517 43.4205C32.8352 43.125 32.0114 42.9773 31.0455 42.9773H26.4773V50.3409ZM26.4773 37.1136H30.3636C31.1932 37.1136 31.9261 36.983 32.5625 36.7216C33.1989 36.4602 33.6932 36.0852 34.0455 35.5966C34.4091 35.0966 34.5909 34.4886 34.5909 33.7727C34.5909 32.6932 34.2045 31.8693 33.4318 31.3011C32.6591 30.7216 31.6818 30.4318 30.5 30.4318H26.4773V37.1136Z" fill="black"/>
    <path d="M51.4775 21V48.2725H65.5908V59.9092H38V21H51.4775Z" stroke="black" stroke-width="4"/>
</svg>
